<svg width="97" height="98" xmlns="http://www.w3.org/2000/svg" xmlns:xlink="http://www.w3.org/1999/xlink" overflow="hidden"><defs><clipPath id="clip0"><rect x="1100" y="538" width="97" height="98"/></clipPath><clipPath id="clip1"><rect x="1101" y="539" width="96" height="96"/></clipPath><clipPath id="clip2"><rect x="1101" y="539" width="96" height="96"/></clipPath><clipPath id="clip3"><rect x="1101" y="539" width="96" height="96"/></clipPath></defs><g clip-path="url(#clip0)" transform="translate(-1100 -538)"><g clip-path="url(#clip1)"><g clip-path="url(#clip2)"><g clip-path="url(#clip3)"><path d="M1124.6 600.717 1122.1 608.217 1127.8 613.917 1135.3 611.417C1137.29 612.53 1139.4 613.403 1141.6 614.017L1145.1 621.017 1153.1 621.017 1156.6 614.017C1158.77 613.421 1160.85 612.547 1162.8 611.417L1170.3 613.917 1176 608.217 1173.5 600.717C1174.61 598.727 1175.49 596.612 1176.1 594.417L1183.1 590.917 1183.1 582.917 1176 579.517C1175.4 577.347 1174.53 575.263 1173.4 573.317L1175.9 565.817 1170.2 560.117 1162.7 562.617C1160.71 561.504 1158.6 560.631 1156.4 560.017L1153 553 1145 553 1141.5 560C1139.33 560.596 1137.25 561.47 1135.3 562.6L1127.8 560.1 1122.1 565.8 1124.6 573.3C1123.49 575.29 1122.61 577.405 1122 579.6L1115 583 1115 591 1122 594.5C1122.6 596.675 1123.47 598.765 1124.6 600.717ZM1117 584.264 1122.87 581.41 1123.69 581.01 1123.93 580.134C1124.5 578.091 1125.32 576.122 1126.35 574.269L1126.77 573.503 1126.5 572.673 1124.39 566.344 1128.34 562.39 1134.67 564.5 1135.52 564.785 1136.3 564.333C1138.1 563.29 1140.02 562.483 1142.03 561.933L1142.89 561.698 1143.29 560.898 1146.24 555 1151.75 555 1154.6 560.88 1155 561.696 1155.88 561.935C1157.92 562.51 1159.89 563.324 1161.74 564.359L1162.51 564.781 1163.34 564.504 1169.66 562.394 1173.62 566.348 1171.51 572.677 1171.22 573.532 1171.67 574.311C1172.72 576.108 1173.52 578.033 1174.07 580.037L1174.31 580.92 1175.14 581.315 1181.1 584.172 1181.1 589.679 1175.2 592.627 1174.41 593.027 1174.17 593.889C1173.6 595.932 1172.78 597.901 1171.75 599.754L1171.33 600.52 1171.6 601.35 1173.71 607.679 1169.76 611.633 1163.43 609.523 1162.58 609.238 1161.8 609.69C1160 610.733 1158.08 611.54 1156.07 612.09L1155.21 612.325 1154.81 613.125 1151.86 619.025 1146.34 619.025 1143.39 613.125 1142.99 612.325 1142.13 612.09C1140.09 611.515 1138.12 610.701 1136.27 609.666L1135.5 609.244 1134.67 609.521 1128.34 611.631 1124.39 607.677 1126.5 601.35 1126.78 600.495 1126.33 599.715C1125.29 597.918 1124.48 595.993 1123.93 593.989L1123.7 593.127 1122.9 592.727 1117 589.779Z" stroke="#004286" stroke-width="4" stroke-linecap="butt" stroke-linejoin="miter" stroke-miterlimit="4" stroke-opacity="1" fill="#000000" fill-rule="nonzero" fill-opacity="1"/><path d="M1149 599.017C1155.63 599.017 1161 593.644 1161 587.017 1161 580.39 1155.63 575.017 1149 575.017 1142.37 575.017 1137 580.39 1137 587.017 1137.02 593.636 1142.38 598.996 1149 599.017ZM1149 577.01C1154.52 577.01 1159 581.487 1159 587.01 1159 592.533 1154.52 597.01 1149 597.01 1143.48 597.01 1139 592.533 1139 587.01 1139.01 581.49 1143.48 577.017 1149 577.01Z" stroke="#004286" stroke-width="4" stroke-linecap="butt" stroke-linejoin="miter" stroke-miterlimit="4" stroke-opacity="1" fill="#000000" fill-rule="nonzero" fill-opacity="1"/></g></g></g></g></svg>